<svg version="1.2" xmlns="http://www.w3.org/2000/svg" viewBox="0 0 1048 1555" width="1048" height="1555"><style>.a{fill:#b5b5b5}.b{fill:#efefef}.c{fill:#2d2d2d}.d{fill:#d6d6d6}.e{fill:#1e1e1e}.f{fill:#0f0f0f}.g{fill:#0c0c0c}.h{fill:#1c1c1c}.i{fill:#3f3f3f}.j{fill:#8c8c8c}.k{fill:#191919}</style><path class="a" d="m490.8 1554.7v-948.2l556.2-321.9v946.4z"/><path class="b" d="m1 1270.8v-946.4l489.8 282.1v948.2z"/><path class="c" d="m42.6 1214.5v-785.4l406.6 234.1v786.9z"/><path class="d" d="m490.8 606.5l-489.8-282.1 556.2-324.1 489.8 284.3z"/><path class="e" d="m42.6 1214.5l54.4-33.7 352.2 201.8v67.5z"/><path class="f" d="m42.6 1214.5v-785.4l54.4 31.3v720.4z"/><path class="g" d="m412 704.3l8.2-3.4v74.6l-8.2 3.4z"/><path class="h" d="m134 611.6v-74l286.2 163.3v74.6z"/><path class="i" d="m125.8 615.1v-74.1l286.2 163.3v74.6z"/><path class="j" d="m355 695.2v-12.8l49.3 28.1v12.9z"/><path class="j" d="m355 715.7v-12.7l49.3 28.1v12.9z"/><path class="j" d="m355 736.3v-12.8l49.3 28.2v12.8z"/><path class="j" d="m291.7 678.7v-12.8l49.4 28.2v12.8z"/><path class="j" d="m291.7 699.3v-12.8l49.4 28.1v12.9z"/><path class="j" d="m227.8 620.7v-12.7l49.3 28.1v12.9z"/><path class="j" d="m227.8 641.3v-12.8l49.3 28.2v12.8z"/><path class="j" d="m227.8 661.9v-12.8l49.3 28.1v12.9z"/><path class="j" d="m164.6 604.3v-12.8l49.3 28.1v12.9z"/><path class="j" d="m164.6 624.8v-12.7l49.3 28.1v12.9z"/><path class="k" d="m125.8 541l8.2-3.4 286.2 163.3-8.2 3.4z"/><path class="h" d="m134 716.2v-74.1l286.2 163.3v74.6z"/><path class="i" d="m125.8 719.6v-74l286.2 163.3v74.6z"/><path class="j" d="m355 799.7v-12.8l49.3 28.2v12.8z"/><path class="j" d="m355 820.3v-12.8l49.3 28.2v12.8z"/><path class="j" d="m355 840.8v-12.7l49.3 28.1v12.9z"/><path class="j" d="m291.7 783.3v-12.8l49.4 28.1v12.9z"/><path class="j" d="m291.7 803.8v-12.7l49.4 28.1v12.9z"/><path class="j" d="m227.8 725.3v-12.8l49.3 28.1v12.9z"/><path class="j" d="m227.8 745.8v-12.7l49.3 28.1v12.9z"/><path class="j" d="m227.8 766.4v-12.8l49.3 28.2v12.8z"/><path class="j" d="m164.6 708.8v-12.7l49.3 28.1v12.8z"/><path class="j" d="m164.6 729.4v-12.8l49.3 28.2v12.8z"/><path class="k" d="m125.8 645.6l8.2-3.5 286.2 163.3-8.2 3.5z"/><path class="h" d="m134 820.7v-74l286.2 163.3v74.6z"/><path class="i" d="m125.8 824.2v-74.1l286.2 163.3v74.6z"/><path class="j" d="m355 904.3v-12.8l49.3 28.1v12.9z"/><path class="j" d="m355 924.8v-12.7l49.3 28.1v12.9z"/><path class="j" d="m355 945.4v-12.8l49.3 28.2v12.8z"/><path class="j" d="m291.7 887.8v-12.8l49.4 28.2v12.8z"/><path class="j" d="m291.7 908.4v-12.8l49.4 28.1v12.9z"/><path class="j" d="m227.8 829.8v-12.7l49.3 28.1v12.9z"/><path class="j" d="m227.8 850.4v-12.8l49.3 28.2v12.8z"/><path class="j" d="m227.8 871v-12.8l49.3 28.1v12.9z"/><path class="j" d="m164.6 813.4v-12.8l49.3 28.1v12.9z"/><path class="j" d="m164.6 833.9v-12.7l49.3 28.1v12.9z"/><path class="k" d="m125.8 750.1l8.2-3.4 286.2 163.3-8.2 3.4z"/><path class="h" d="m134 925.3v-74.1l286.2 163.3v74.6z"/><path class="i" d="m125.8 928.7v-74l286.2 163.3v74.6z"/><path class="j" d="m355 1008.8v-12.8l49.3 28.2v12.8z"/><path class="j" d="m355 1029.4v-12.8l49.3 28.1v12.9z"/><path class="j" d="m355 1049.9v-12.7l49.3 28.1v12.9z"/><path class="j" d="m291.7 992.4v-12.8l49.4 28.1v12.9z"/><path class="j" d="m291.7 1012.9v-12.7l49.4 28.1v12.9z"/><path class="j" d="m227.8 934.4v-12.8l49.3 28.1v12.9z"/><path class="j" d="m227.8 954.9v-12.7l49.3 28.1v12.9z"/><path class="j" d="m227.8 975.5v-12.8l49.3 28.2v12.8z"/><path class="j" d="m164.6 917.9v-12.7l49.3 28.1v12.8z"/><path class="j" d="m164.6 938.5v-12.8l49.3 28.2v12.8z"/><path class="k" d="m125.8 854.7l8.2-3.5 286.2 163.3-8.2 3.5z"/><path class="h" d="m134 1029.8v-74l286.2 163.3v74.6z"/><path class="i" d="m125.8 1033.3v-74.1l286.2 163.3v74.6z"/><path class="j" d="m355 1113.4v-12.8l49.3 28.1v12.9z"/><path class="j" d="m355 1133.9v-12.7l49.3 28.1v12.9z"/><path class="j" d="m355 1154.5v-12.8l49.3 28.2v12.8z"/><path class="j" d="m291.7 1096.9v-12.8l49.4 28.2v12.8z"/><path class="j" d="m291.7 1117.5v-12.8l49.4 28.1v12.9z"/><path class="j" d="m227.8 1038.9v-12.7l49.3 28.1v12.8z"/><path class="j" d="m227.8 1059.5v-12.8l49.3 28.2v12.8z"/><path class="j" d="m227.8 1080.1v-12.8l49.3 28.1v12.9z"/><path class="j" d="m164.6 1022.5v-12.8l49.3 28.1v12.9z"/><path class="j" d="m164.6 1043v-12.7l49.3 28.1v12.9z"/><path class="k" d="m125.8 959.2l8.2-3.4 286.2 163.3-8.2 3.4z"/><path class="h" d="m134 1134.4v-74.1l286.2 163.3v74.6z"/><path class="i" d="m125.8 1137.8v-74.1l286.2 163.4v74.6z"/><path class="j" d="m355 1217.9v-12.8l49.3 28.2v12.8z"/><path class="j" d="m355 1238.5v-12.8l49.3 28.1v12.9z"/><path class="j" d="m355 1259v-12.7l49.3 28.1v12.9z"/><path class="j" d="m291.7 1201.5v-12.8l49.4 28.1v12.9z"/><path class="j" d="m291.7 1222v-12.7l49.4 28.1v12.9z"/><path class="j" d="m227.8 1143.5v-12.8l49.3 28.1v12.9z"/><path class="j" d="m227.8 1164v-12.7l49.3 28.1v12.9z"/><path class="j" d="m227.8 1184.6v-12.8l49.3 28.2v12.8z"/><path class="j" d="m164.6 1127v-12.7l49.3 28.1v12.8z"/><path class="j" d="m164.6 1147.6v-12.8l49.3 28.2v12.8z"/><path class="k" d="m125.8 1063.7l8.2-3.4 286.2 163.3-8.2 3.5z"/><path class="f" d="m420.2 775.5l-8.2 3.4v-74.6l8.2-3.4z"/><path class="e" d="m990.1 1214.9l-1.9-84.1 12.3-8.3 2 85.1z"/><path class="e" d="m971.1 1225.1l-1.9-84 12.3-8.3 2 85z"/><path class="e" d="m951 1237l-2-84.1 12.4-8.3 2 85z"/><path class="e" d="m932 1247.2l-1.9-84.1 12.3-8.3 2 85.1z"/><path class="e" d="m911.9 1259l-2-84 12.3-8.3 2.1 85z"/><path class="e" d="m892.9 1269.3l-2-84.1 12.4-8.3 2 85.1z"/><path class="e" d="m872.8 1281.1l-2-84 12.3-8.4 2 85.1z"/><path class="e" d="m853.8 1291.4l-2-84.1 12.3-8.3 2 85.1z"/><path class="e" d="m834.7 1302.9l-2-84.1 12.3-8.3 2 85.1z"/><path class="e" d="m815.7 1313.1l-2-84 12.3-8.3 2 85z"/><path class="e" d="m795.6 1325l-2-84.1 12.3-8.3 2 85z"/><path class="e" d="m776.6 1335.2l-2-84 12.3-8.4 2 85.1z"/><path class="e" d="m756.4 1347l-1.9-84 12.3-8.3 2 85z"/><path class="e" d="m737.4 1357.3l-1.9-84.1 12.3-8.3 2 85.1z"/><path class="e" d="m717.3 1369.1l-1.9-84 12.3-8.4 2 85.1z"/><path class="e" d="m698.3 1379.4l-1.9-84.1 12.3-8.3 2 85.1z"/><path class="e" d="m679.3 1390l-2-84 12.3-8.4 2 85.1z"/><path class="e" d="m660.3 1400.3l-2-84.1 12.3-8.3 2 85.1z"/><path class="e" d="m640.2 1412.1l-2-84.1 12.3-8.3 2 85.1z"/><path class="e" d="m621.2 1422.4l-2-84.1 12.3-8.3 2 85z"/><path class="e" d="m601.1 1434.2l-2-84.1 12.3-8.3 2 85.1z"/><path class="e" d="m582.1 1444.4l-2-84 12.3-8.3 2 85z"/><path class="e" d="m562 1456.3l-2-84.1 12.3-8.3 2 85z"/><path class="e" d="m543 1466.5l-2-84 12.3-8.4 2 85.1z"/><path class="e" d="m990.1 900l-1.9-84.1 12.3-8.3 2 85z"/><path class="e" d="m971.1 910.2l-1.9-84 12.3-8.4 2 85.1z"/><path class="e" d="m951 922l-2-84 12.4-8.3 2 85z"/><path class="e" d="m932 932.3l-1.9-84.1 12.3-8.3 2 85.1z"/><path class="e" d="m911.9 944.1l-2-84 12.3-8.4 2.1 85.1z"/><path class="e" d="m892.9 954.4l-2-84.1 12.4-8.3 2 85.1z"/><path class="e" d="m872.8 966.2l-2-84.1 12.3-8.3 2 85.1z"/><path class="e" d="m853.8 976.5l-2-84.1 12.3-8.3 2 85z"/><path class="e" d="m834.7 988l-2-84.1 12.3-8.3 2 85z"/><path class="e" d="m815.7 998.2l-2-84 12.3-8.4 2 85.1z"/><path class="e" d="m795.6 1010l-2-84 12.3-8.3 2 85z"/><path class="e" d="m776.6 1020.3l-2-84.1 12.3-8.3 2 85.1z"/><path class="e" d="m756.4 1032.1l-1.9-84 12.3-8.4 2 85.1z"/><path class="e" d="m737.4 1042.4l-1.9-84.1 12.3-8.3 2 85.1z"/><path class="e" d="m717.3 1054.2l-1.9-84.1 12.3-8.3 2 85.1z"/><path class="e" d="m698.3 1064.5l-1.9-84.1 12.3-8.3 2 85z"/><path class="e" d="m679.3 1075.1l-2-84.1 12.3-8.3 2 85.1z"/><path class="e" d="m660.3 1085.4l-2-84.1 12.3-8.3 2 85z"/><path class="e" d="m640.2 1097.2l-2-84.1 12.3-8.3 2 85.1z"/><path class="e" d="m621.2 1107.4l-2-84 12.3-8.3 2 85z"/><path class="e" d="m601.1 1119.3l-2-84.1 12.3-8.3 2 85z"/><path class="e" d="m582.1 1129.5l-2-84 12.3-8.4 2 85.1z"/><path class="e" d="m562 1141.3l-2-84 12.3-8.3 2 85z"/><path class="e" d="m543 1151.6l-2-84.1 12.3-8.3 2 85.1z"/><path class="e" d="m990.1 565.9l-1.9-84 12.3-8.4 2 85.1z"/><path class="e" d="m971.1 576.2l-1.9-84.1 12.3-8.3 2 85.1z"/><path class="e" d="m951 588l-2-84.1 12.4-8.3 2 85.1z"/><path class="e" d="m932 598.3l-1.9-84.1 12.3-8.3 2 85z"/><path class="e" d="m911.9 610.1l-2-84.1 12.3-8.3 2.1 85.1z"/><path class="e" d="m892.9 620.3l-2-84 12.4-8.3 2 85z"/><path class="e" d="m872.8 632.2l-2-84.1 12.3-8.3 2 85z"/><path class="e" d="m853.8 642.4l-2-84.1 12.3-8.3 2 85.1z"/><path class="e" d="m834.7 653.9l-2-84 12.3-8.4 2 85.1z"/><path class="e" d="m815.7 664.2l-2-84.1 12.3-8.3 2 85.1z"/><path class="e" d="m795.6 676l-2-84.1 12.3-8.3 2 85.1z"/><path class="e" d="m776.6 686.3l-2-84.1 12.3-8.3 2 85z"/><path class="e" d="m756.4 698.1l-1.9-84.1 12.3-8.3 2 85.1z"/><path class="e" d="m737.4 708.3l-1.9-84 12.3-8.3 2 85z"/><path class="e" d="m717.3 720.2l-1.9-84.1 12.3-8.3 2 85z"/><path class="e" d="m698.3 730.4l-1.9-84.1 12.3-8.3 2 85.1z"/><path class="e" d="m679.3 741.1l-2-84.1 12.3-8.3 2 85z"/><path class="e" d="m660.3 751.3l-2-84.1 12.3-8.3 2 85.1z"/><path class="e" d="m640.2 763.1l-2-84 12.3-8.3 2 85z"/><path class="e" d="m621.2 773.4l-2-84.1 12.3-8.3 2 85.1z"/><path class="e" d="m601.1 785.2l-2-84 12.3-8.4 2 85.1z"/><path class="e" d="m582.1 795.5l-2-84.1 12.3-8.3 2 85.1z"/><path class="e" d="m562 807.3l-2-84.1 12.3-8.3 2 85.1z"/><path class="e" d="m543 817.6l-2-84.1 12.3-8.3 2 85z"/><path class="e" d="m483.5 563.2l43.7-27.5 8.7 5.4-44.3 26.5z"/><path class="e" d="m470.1 555.3l43.7-27.5 8.7 5.4-44.4 26.6z"/><path class="e" d="m456.9 547.8l43.8-27.4 8.6 5.4-44.3 26.5z"/><path class="e" d="m443.5 540l43.7-27.5 8.7 5.4-44.3 26.6z"/><path class="e" d="m429.5 532l43.7-27.5 8.7 5.4-44.3 26.5z"/><path class="e" d="m416.1 524.1l43.7-27.5 8.7 5.4-44.3 26.6z"/><path class="e" d="m403 516.6l43.7-27.4 8.6 5.4-44.3 26.5z"/><path class="e" d="m389.5 508.8l43.7-27.5 8.7 5.4-44.3 26.6z"/><path class="e" d="m374.9 499.8l43.7-27.5 8.6 5.5-44.3 26.5z"/><path class="e" d="m361.4 492l43.7-27.5 8.7 5.4-44.3 26.5z"/><path class="e" d="m348.3 484.5l43.7-27.5 8.7 5.4-44.4 26.6z"/><path class="e" d="m334.9 476.6l43.7-27.4 8.6 5.4-44.3 26.5z"/><path class="e" d="m320.9 468.6l43.7-27.5 8.7 5.5-44.4 26.5z"/><path class="e" d="m307.4 460.8l43.8-27.5 8.6 5.4-44.3 26.5z"/><path class="e" d="m294.3 453.3l43.7-27.5 8.7 5.4-44.4 26.6z"/><path class="e" d="m280.9 445.4l43.7-27.5 8.6 5.5-44.3 26.5z"/><path class="e" d="m267 437.2l43.7-27.5 8.7 5.5-44.4 26.5z"/><path class="e" d="m253.5 429.4l43.8-27.5 8.6 5.4-44.3 26.5z"/><path class="e" d="m240.4 421.9l43.7-27.5 8.7 5.4-44.4 26.6z"/><path class="e" d="m227 414l43.7-27.4 8.6 5.4-44.3 26.5z"/><path class="e" d="m213 406l43.7-27.5 8.7 5.5-44.4 26.5z"/><path class="e" d="m199.6 398.2l43.7-27.5 8.6 5.4-44.3 26.5z"/><path class="e" d="m186.4 390.7l43.7-27.5 8.7 5.4-44.4 26.6z"/><path class="e" d="m173 382.8l43.7-27.5 8.7 5.5-44.4 26.5z"/><path class="e" d="m158.3 373.9l43.7-27.5 8.7 5.4-44.3 26.6z"/><path class="e" d="m144.9 366l43.7-27.5 8.7 5.5-44.4 26.5z"/><path class="e" d="m131.7 358.6l43.7-27.5 8.7 5.4-44.3 26.5z"/><path class="e" d="m118.3 350.7l43.7-27.5 8.7 5.4-44.4 26.6z"/><path class="e" d="m104.3 342.7l43.7-27.5 8.7 5.4-44.3 26.6z"/><path class="e" d="m90.9 334.8l43.7-27.5 8.7 5.5-44.4 26.5z"/><path class="e" d="m77.7 327.4l43.7-27.5 8.7 5.4-44.3 26.5z"/><path class="e" d="m64.3 319.5l43.7-27.5 8.7 5.4-44.3 26.6z"/></svg>